<svg width="140" height="24" viewBox="0 0 140 24" fill="none" xmlns="http://www.w3.org/2000/svg">
<g clip-path="url(#clip0_266_3877)">
<path d="M54.7822 2.84517C54.7822 2.29518 55.0045 1.76771 55.4003 1.3788C55.796 0.989901 56.3328 0.771417 56.8925 0.771417C57.4522 0.771417 57.9889 0.989901 58.3846 1.3788C58.7804 1.76771 59.0027 2.29518 59.0027 2.84517C58.9823 3.38177 58.7511 3.88971 58.3576 4.26226C57.964 4.63481 57.4389 4.84296 56.8925 4.84296C56.3461 4.84296 55.8209 4.63481 55.4274 4.26226C55.0339 3.88971 54.8026 3.38177 54.7822 2.84517Z" fill="#B9BEC7"/>
<path d="M88.0782 16.675C88.0782 15.524 89.0216 14.594 90.184 14.594C90.7452 14.594 91.2835 14.8131 91.6804 15.2031C92.0772 15.5931 92.3001 16.122 92.3001 16.6736C92.3001 17.2251 92.0772 17.754 91.6804 18.144C91.2835 18.534 90.7452 18.7531 90.184 18.7531C89.0231 18.7531 88.0782 17.8216 88.0782 16.6736" fill="#B9BEC7"/>
<path d="M20.149 15.7754C18.3327 15.7754 17.0689 14.3572 17.0689 12.3297C17.0689 10.3036 18.3327 8.88692 20.1505 8.88692C21.9771 8.88692 23.2541 10.3036 23.2541 12.3297C23.2541 14.389 22.005 15.7754 20.149 15.7754ZM20.149 5.85861C16.3047 5.85861 13.5141 8.58077 13.5141 12.3297C13.5141 16.0801 16.3062 18.8008 20.149 18.8008C24.0095 18.8008 26.8104 16.0801 26.8104 12.3311C26.8104 8.58077 24.0095 5.85861 20.1505 5.85861H20.149ZM50.6947 12.6546C50.5609 12.4003 50.3918 12.1656 50.1921 11.9571L50.0745 11.8373L50.198 11.7217C50.3744 11.5383 50.5551 11.3217 50.7285 11.0704L54.1231 6.11422H50.0026L47.4529 9.99167C47.3089 10.1996 47.018 10.3036 46.5815 10.3036H46.001V2.97327C46.001 1.50749 45.0708 1.3082 44.0671 1.3082H42.3477L42.3521 18.6102H46.0024V13.42H46.3449C46.7608 13.42 47.0429 13.4677 47.1737 13.6901L49.1869 17.4245C49.7497 18.4383 50.3096 18.6102 51.3647 18.6102H54.1613L52.0775 15.2252L50.6962 12.6546H50.6947ZM68.4143 5.82973C66.5568 5.82973 65.3724 6.64132 64.7081 7.32728L64.4878 7.54678L64.4084 7.24785C64.2144 6.5128 63.5561 6.10989 62.5671 6.10989H60.9314L60.9417 18.6058H64.567V12.8467C64.567 12.2835 64.6405 11.7954 64.7933 11.3491C65.196 9.99889 66.3217 9.15986 67.728 9.15986C68.8595 9.15986 69.3019 9.74762 69.3019 11.2639V16.7068C69.3019 18.0007 69.9117 18.6058 71.2299 18.6058H72.9551L72.9493 10.6574C72.9493 7.50057 71.3813 5.83117 68.4143 5.83117V5.82973ZM56.9358 6.11422H55.2179L55.2296 15.7768V18.6102H57.0621L57.1268 18.613L57.9821 18.6102H58.8315V18.6058H58.8374L58.8447 8.01323C58.8447 6.73519 58.2231 6.11566 56.9373 6.11566L56.9358 6.11422ZM34.3873 15.7754C32.5709 15.7754 31.3057 14.3572 31.3057 12.3297C31.3057 10.3036 32.571 8.88692 34.3888 8.88692C36.211 8.88692 37.4925 10.3036 37.4925 12.3297C37.4925 14.389 36.2433 15.7754 34.3888 15.7754H34.3873ZM34.3873 5.85861C30.54 5.85861 27.7479 8.58077 27.7479 12.3297C27.7479 16.0801 30.5401 18.8008 34.3888 18.8008C38.2434 18.8008 41.0501 16.0801 41.0501 12.3311C41.0501 8.58077 38.2434 5.85861 34.3888 5.85861" fill="#B9BEC7"/>
<path d="M112.087 15.7755C110.271 15.7755 109.004 14.3574 109.004 12.3298C109.004 10.3038 110.271 8.88708 112.087 8.88708C113.912 8.88708 115.192 10.3038 115.192 12.3298C115.192 14.3892 113.943 15.7755 112.087 15.7755ZM112.087 5.85877C108.24 5.85877 105.449 8.58092 105.449 12.3298C105.449 16.0802 108.24 18.8009 112.087 18.8009C115.943 18.8009 118.748 16.0802 118.748 12.3313C118.748 8.58092 115.941 5.85877 112.087 5.85877Z" fill="#B9BEC7"/>
<path d="M80.5918 15.2252C78.6094 15.2252 77.9041 13.5269 77.9041 11.934C77.9041 11.2322 78.0848 8.94616 80.4022 8.94616C81.5529 8.94616 83.0856 9.26964 83.0856 12.051C83.0856 14.675 81.7292 15.2252 80.5918 15.2252ZM84.968 6.08103C84.2803 6.08103 83.7513 6.35108 83.4853 6.84352L83.3854 7.03415L83.2179 6.88974C82.633 6.39296 81.5837 5.80232 79.8806 5.80232C76.4904 5.80232 74.2082 8.30497 74.2082 12.0265C74.2082 15.7465 76.5697 18.3459 79.9482 18.3459C81.1018 18.3459 82.0143 18.0802 82.7373 17.543L83.0165 17.3365V17.6831C83.0165 19.3525 81.9188 20.2738 79.9276 20.2738C78.9591 20.2738 78.0789 20.0427 77.4882 19.8319C76.7211 19.6037 76.2684 19.7929 75.9584 20.5511L75.6704 21.25L75.2633 22.2725L75.5146 22.4039C76.7901 23.0682 78.4493 23.4653 79.9482 23.4653C83.0342 23.4653 86.6404 21.9129 86.6404 17.543L86.6536 6.08103H84.968Z" fill="#B9BEC7"/>
<path d="M6.87476 15.6323L3.92394 15.6294V12.1636C3.92394 11.4213 4.21638 11.0371 4.8615 10.9476H6.87476C8.31049 10.9476 9.23921 11.8372 9.24068 13.277C9.23921 14.7557 8.334 15.6309 6.87476 15.6309V15.6323ZM3.92394 6.28022V5.36754C3.92394 4.56895 4.26783 4.18914 5.0217 4.14004H6.5324C7.82706 4.14004 8.60296 4.90109 8.60296 6.17625C8.60296 7.14669 8.07097 8.28032 6.5794 8.28032H3.92394V6.28022V6.28022ZM10.6427 9.74033L10.1092 9.44572L10.575 9.05437C11.1173 8.59658 12.024 7.56693 12.024 5.79067C12.024 3.06995 9.87851 1.31391 6.5559 1.31391H2.33243C1.8572 1.33093 1.40688 1.52699 1.07475 1.86144C0.742619 2.19589 0.554154 2.6431 0.548431 3.11039V18.548H6.63079C10.3237 18.548 12.7073 16.5724 12.7073 13.5124C12.7073 11.8646 11.9373 10.4566 10.6427 9.74033" fill="#B9BEC7"/>
<path d="M135.169 5.8717C134.42 5.87441 133.682 6.04231 133.008 6.363C132.335 6.68369 131.743 7.14898 131.277 7.7245L131.016 8.05087L130.81 7.68551C130.137 6.48256 128.982 5.8717 127.376 5.8717C125.69 5.8717 124.56 6.79593 124.035 7.3447L123.692 7.71006L123.559 7.22917C123.368 6.53599 122.741 6.15619 121.792 6.15619H120.268L120.253 18.6045H123.714V13.1096C123.714 12.6273 123.775 12.1522 123.897 11.6539C124.228 10.3254 125.136 8.89712 126.663 9.04009C127.603 9.12963 128.065 9.84446 128.065 11.225V18.6045H131.551V13.1096C131.551 12.5074 131.608 12.0569 131.746 11.6063C132.025 10.3384 132.975 9.03865 134.447 9.03865C135.514 9.03865 135.908 9.63074 135.908 11.225V16.7849C135.908 18.0413 136.478 18.6045 137.758 18.6045H139.386L139.389 10.6575C139.389 7.48189 137.967 5.8717 135.169 5.8717V5.8717ZM103.671 14.2822C103.66 14.2952 102.172 15.8375 100.21 15.8375C98.423 15.8375 96.6184 14.7602 96.6184 12.3558C96.6184 10.2791 98.0174 8.82781 100.022 8.82781C100.671 8.82781 101.412 9.05598 101.528 9.44156L101.544 9.50654C101.618 9.772 101.779 10.006 102.003 10.1723C102.226 10.3387 102.499 10.428 102.779 10.4264L104.674 10.4293V8.80037C104.674 6.65152 101.893 5.8717 100.022 5.8717C96.0188 5.8717 93.115 8.60974 93.115 12.3818C93.115 16.1509 95.9865 18.8861 99.9484 18.8861C103.384 18.8861 105.253 16.6665 105.271 16.6448L105.371 16.5235L103.869 14.0757L103.671 14.2822" fill="#B9BEC7"/>
</g>
<defs>
<clipPath id="clip0_266_3877">
<rect width="139.487" height="23.2478" fill="white" transform="translate(3.05176e-05 0.477844)"/>
</clipPath>
</defs>
</svg>
