<svg width="115" height="14" fill="none" xmlns="http://www.w3.org/2000/svg"><g clip-path="url(#prefix__clip0_218_12216)" fill="#B9BEC7"><path d="M74.332 13.37h-3.118V.649L81.24.656s1.836-.068 3.004 1.086c0 0 1.192.995 1.192 3.428v8.199h-3.11V4.958s.039-.858-.254-1.16c0 0-.258-.326-.75-.326h-6.998l.007 9.894v.005zm13.27-.001V.657h12.511v2.828h-9.412v2.16h6.539v2.731H90.7v2.169h9.472v2.828H87.595l.007-.004zm-21.82 0V.657h3.104v12.716h-3.104v-.004zm39.6-10.684v-.429.429zm-.8 10.684V3.48h-2.931V.654h11.656v2.827h-5.619v9.888h-3.106zM56.329 2.685v-.429.429zm-.8 10.684V3.48h-2.93V.654h11.655v2.827h-5.619v9.888H55.53zm-9.361-7.732c.758-.006 1.212 0 1.395-.11 0 0 .319-.177.322-.555l.001-.832c0-.38-.323-.554-.323-.554-.242-.132-.652-.107-1.625-.108H39.89v2.159h6.417-.14zm1.672 7.732v-4.34c0-.39-.326-.553-.326-.553-.147-.092-.587-.108-1.235-.108h.15-6.54v5h-3.104V.656h9.69c1.674.006 2.83.252 3.625 1.025.782.796.886 1.838.89 2.923v.905c.01.922-.474 1.762-1.052 2.252l.117.057c.235.114.364.276.364.276.44.561.434 1.044.433 1.637v3.64h-3.011v-.002zM.896.653V13.365H4V8.369h9.405V5.638H4v-2.16h10.932V.65H.894l.002.003zM112.259 11.12v.584h.543c.147 0 .29-.04.312-.259.031-.29-.179-.325-.312-.325h-.543zm-.219-.192h.757c.263 0 .517.05.539.432.009.22-.057.299-.223.424.175.112.179.138.206.432.017.223-.014.259.08.406h-.258l-.036-.214c-.036-.201.062-.512-.289-.512h-.558v.726h-.218v-1.694zm.57-.467c-.748 0-1.358.61-1.353 1.363a1.36 1.36 0 101.354-1.364h-.001zm.005 2.895c-.85 0-1.537-.686-1.537-1.536a1.535 1.535 0 011.537-1.538c.847 0 1.538.69 1.538 1.538 0 .85-.691 1.533-1.538 1.536zM32.517 13.495c1.008-.342 1.793-1.504 1.982-2.964v-.422h-5.17v3.386H32.517zM34.5 3.9v-.382C34.3 1.995 33.458.794 32.383.512H29.33V3.9h5.17zm-18.197 6.21v.418c.188 1.461.972 2.625 1.984 2.967h3.171V10.11h-5.155zM18.42.513c-1.073.283-1.919 1.484-2.116 3.01v.379h5.155V.515H18.42zm16.084 4.799h-5.17V8.7h5.17V5.313zM22.87 13.497h5.058v-3.386H22.87v3.386zM27.927.512H22.87v3.387h5.058V.512zm-11.62 8.184h5.156V5.308h-5.155v3.388z"/></g><defs><clipPath id="prefix__clip0_218_12216"><path fill="#fff" transform="translate(.5 .098)" d="M0 0h114v13.805H0z"/></clipPath></defs></svg>
