<svg width="63" height="25" viewBox="0 0 63 25" fill="none" xmlns="http://www.w3.org/2000/svg">
<path d="M0 23.2592H12.2493V24.9938H0V23.2592Z" fill="#B9BEC7"/>
<path d="M0 19.9321H12.2493V21.6728H0V19.9321Z" fill="#B9BEC7"/>
<path d="M3.49448 16.6111H8.74862V18.3519H3.49448V16.6111Z" fill="#B9BEC7"/>
<path d="M3.49448 13.2901H8.74862V15.0309H3.49448V13.2901Z" fill="#B9BEC7"/>
<path d="M3.49448 9.96912H8.74862V11.7099H3.49448V9.96912Z" fill="#B9BEC7"/>
<path d="M3.49448 6.642H8.74862V8.38275H3.49448V6.642Z" fill="#B9BEC7"/>
<path d="M12.2493 3.32095H0V5.0617H12.2493V3.32095Z" fill="#B9BEC7"/>
<path d="M12.2493 0H0V1.74075H12.2493V0Z" fill="#B9BEC7"/>
<path d="M13.9965 21.6728H32.8353C33.1536 21.1358 33.3907 20.5493 33.5343 19.9321H13.9965V21.6728Z" fill="#B9BEC7"/>
<path d="M31.369 13.2901H17.4972V15.0309H32.8354C32.436 14.3642 31.943 13.7778 31.369 13.2901Z" fill="#B9BEC7"/>
<path d="M17.4972 9.96912V11.7099H31.369C31.9555 11.2222 32.4485 10.6358 32.8354 9.96912H17.4972Z" fill="#B9BEC7"/>
<path d="M32.8354 3.32095H13.9965V5.0617H33.5343C33.372 4.44441 33.1349 3.85804 32.8354 3.32095Z" fill="#B9BEC7"/>
<path d="M27.0446 0H13.9965V1.74075H31.5437C30.3705 0.666647 28.7793 0 27.0446 0Z" fill="#B9BEC7"/>
<path d="M22.7451 6.642H17.4972V8.38275H22.7451V6.642Z" fill="#B9BEC7"/>
<path d="M27.9993 8.38275H33.4906C33.6465 7.82722 33.7277 7.24078 33.7277 6.642H27.9993V8.38275Z" fill="#B9BEC7"/>
<path d="M17.4972 16.6111H22.7451V18.3519H17.4972V16.6111Z" fill="#B9BEC7"/>
<path d="M27.9993 16.6111V18.3519H33.7277C33.7277 17.7531 33.6465 17.1667 33.4906 16.6111H27.9993Z" fill="#B9BEC7"/>
<path d="M13.9965 24.9815L27.0446 25C28.7918 25 30.3705 24.3333 31.5499 23.2592H13.9965V24.9815Z" fill="#B9BEC7"/>
<path d="M35.0007 23.2592H43.7493V24.9938H35.0007V23.2592Z" fill="#B9BEC7"/>
<path d="M35.0007 19.9321H43.7493V21.6728H35.0007V19.9321Z" fill="#B9BEC7"/>
<path d="M38.4951 16.6111H43.7493V18.3519H38.4951V16.6111Z" fill="#B9BEC7"/>
<path d="M38.4951 13.2901H43.7493V15.0309H38.4951V13.2901Z" fill="#B9BEC7"/>
<path d="M46.183 3.32095H35.0007V5.0617H46.7882L46.183 3.32095Z" fill="#B9BEC7"/>
<path d="M45.0223 0H35.0007V1.74075H45.6276L45.0223 0Z" fill="#B9BEC7"/>
<path d="M54.2451 23.2592H63V24.9938H54.2451V23.2592Z" fill="#B9BEC7"/>
<path d="M54.2451 19.9321H63V21.6728H54.2451V19.9321Z" fill="#B9BEC7"/>
<path d="M54.2451 16.6111H59.4993V18.3519H54.2451V16.6111Z" fill="#B9BEC7"/>
<path d="M54.2451 13.2901H59.4993V15.0309H54.2451V13.2901Z" fill="#B9BEC7"/>
<path d="M54.2451 11.7099H59.4993V9.96912H54.2451H49.4902L48.9972 11.3766L48.5043 9.96912H43.7493H38.4951V11.7099H43.7493V10.1111L44.3047 11.7099H53.6898L54.2451 10.1111V11.7099Z" fill="#B9BEC7"/>
<path d="M59.4993 6.642H50.6509L50.0456 8.38275H59.4993V6.642Z" fill="#B9BEC7"/>
<path d="M52.9784 0L52.3731 1.74075H63V0H52.9784Z" fill="#B9BEC7"/>
<path d="M48.9972 24.9815L49.6025 23.2592H48.3919L48.9972 24.9815Z" fill="#B9BEC7"/>
<path d="M47.8366 21.6728H50.1579L50.7819 19.9321H47.2188L47.8366 21.6728Z" fill="#B9BEC7"/>
<path d="M46.6572 18.3519H51.3372L51.955 16.6111H46.0394L46.6572 18.3519Z" fill="#B9BEC7"/>
<path d="M45.484 15.0309H52.5166L53.1157 13.2901H44.8787L45.484 15.0309Z" fill="#B9BEC7"/>
<path d="M38.4951 8.38275H47.9488L47.3436 6.642H38.4951V8.38275Z" fill="#B9BEC7"/>
<path d="M51.2124 5.0617H63V3.32095H51.8115L51.2124 5.0617Z" fill="#B9BEC7"/>
</svg>
