<svg width="76" height="24" fill="none" xmlns="http://www.w3.org/2000/svg"><path d="M.5 16.72V.95h2.77v15.77H.5zM10.362 5.28c-3.552 0-6.01 2.73-6.01 5.856 0 3.49 2.674 5.893 6.037 5.893 3.192 0 5.962-2.36 5.962-5.9 0-2.977-2.295-5.85-5.99-5.85zm-.033 2.672c1.859 0 3.227 1.447 3.227 3.194a3.192 3.192 0 01-3.177 3.205c-1.971 0-3.212-1.563-3.212-3.2 0-1.794 1.4-3.199 3.162-3.199zM23.312 5.28c-3.552 0-6.01 2.73-6.01 5.856 0 3.49 2.674 5.893 6.038 5.893 3.192 0 5.962-2.36 5.962-5.9 0-2.085-.903-3.01-.903-3.01l.768-.263V5.607h-3.935s-.853-.327-1.92-.327zm-.033 2.672c1.86 0 3.227 1.447 3.227 3.194a3.192 3.192 0 01-3.176 3.205c-1.972 0-3.212-1.563-3.212-3.2 0-1.794 1.4-3.199 3.161-3.199zM26.487 17.492a3.201 3.201 0 01-3.177 3.214c-1.971 0-3.217-1.577-3.217-3.214h-2.81c0 3.488 2.673 5.892 6.037 5.892 3.192 0 5.962-2.352 5.962-5.892h-2.795zM30.411 16.72V5.608h2.77v11.114h-2.77zM35.872 16.72V8.098h-1.486v-2.49h1.486V2.195h2.77v3.412h1.526v2.49h-1.526v8.624h-2.77zM33.625 2.45a1.834 1.834 0 11-3.669 0 1.834 1.834 0 013.67 0zM46.396 5.272c-3.569 0-5.87 2.733-5.87 5.965 0 3.34 2.309 5.799 5.928 5.799 3.376 0 5.036-2.108 5.036-2.108l-1.852-1.854s-1.398 1.508-3.15 1.508c-1.459 0-2.626-.815-3.033-2.309h8.632v-.763c0-3.043-1.762-6.238-5.69-6.238zm-.088 2.44c1.276 0 2.582.682 2.873 2.313H43.38c.23-1.147 1.232-2.314 2.928-2.314zM59.017 17.037c-3.579 0-6.018-2.725-6.018-5.94 0-3.316 2.756-5.827 6.006-5.827 3.142 0 4.75 2.218 4.75 2.218l-1.932 1.924s-1.12-1.447-2.83-1.447c-1.897 0-3.194 1.45-3.194 3.175 0 1.821 1.38 3.218 3.172 3.218 1.739 0 2.849-1.444 2.849-1.444l1.952 1.923s-1.593 2.2-4.755 2.2zM64.78 16.729V.909h2.77v5.813s1.06-1.452 3.368-1.452c2.901 0 4.582 2.156 4.582 4.914v6.545h-2.77v-6.126c0-1.853-1.154-2.621-2.432-2.621-1.456 0-2.748.828-2.748 2.764v5.983h-2.77z" fill="#B9BEC7"/></svg>
