<svg
	width="146"
	height="38"
	viewBox="0 0 146 38"
	fill="none"
	xmlns="http://www.w3.org/2000/svg"
	aria-label="TaskWizards"
	class=""
	data-testid="cu-logo"
>
	<defs>
		<linearGradient
			id="clickupLogoBottom"
			x1="5.61511"
			y1="31.179"
			x2="32.7893"
			y2="31.179"
			gradientUnits="userSpaceOnUse"
		>
			<stop stop-color="#8930FD"></stop>
			<stop offset="1" stop-color="#49CCF9"></stop>
		</linearGradient>
		<linearGradient
			id="clickupLogoTop"
			x1="5.94116"
			y1="13.0864"
			x2="31.9781"
			y2="13.0864"
			gradientUnits="userSpaceOnUse"
		>
			<stop stop-color="#FF02F0"></stop>
			<stop offset="1" stop-color="#FFC800"></stop>
		</linearGradient>
	</defs>
	<path
		fill-rule="evenodd"
		clip-rule="evenodd"
		d="M5.61511 27.2592L10.6296 23.4086C13.2937 26.894 16.1242 28.5006 19.2749 28.5006C22.4086 28.5006 25.1591 26.913 27.7032 23.455L32.7893 27.2128C29.1185 32.1993 24.5568 34.8339 19.2749 34.8339C14.0098 34.8339 9.40387 32.2161 5.61511 27.2592Z"
		fill="url(#clickupLogoBottom)"
	></path>
	<path
		fill-rule="evenodd"
		clip-rule="evenodd"
		d="M18.9923 10.5228L10.0669 18.2325L5.94116 13.4361L19.0112 2.14587L31.9781 13.4445L27.8334 18.2241L18.9923 10.5228Z"
		fill="url(#clickupLogoTop)"
	></path>
	<path
		d="M51.7539 30.0767C48.7065 30.0767 46.1666 29.0866 44.1069 27.1063C42.0472 25.0987 41.0321 22.5252 41.0321 19.3839C41.0321 16.2172 42.0746 13.6142 44.1343 11.577C46.2235 9.51234 48.7634 8.49478 51.7834 8.49478C55.509 8.49478 58.8092 10.1056 60.7299 12.6241L57.3707 16.1602C55.7617 14.4333 54.0116 13.5572 52.1225 13.5572C50.5135 13.5572 49.1867 14.0934 48.0852 15.1976C47.0132 16.3017 46.4783 17.6887 46.4783 19.3564C46.4783 20.9693 47.0132 22.3268 48.0852 23.4309C49.1867 24.5054 50.5135 25.0417 52.093 25.0417C54.1527 25.0417 55.9597 24.136 57.455 22.3542L60.9552 25.7214C59.9949 26.9944 58.6975 28.0416 57.0885 28.8607C55.4795 29.6819 53.702 30.0767 51.7539 30.0767ZM66.8753 8.18234V29.7663H61.9092V8.18234H66.8753ZM71.5823 12.7634C69.9185 12.7634 68.7054 11.5474 68.7054 9.87967C68.7054 8.26678 69.9754 7.05078 71.5823 7.05078C73.1913 7.05078 74.4338 8.26678 74.4338 9.87967C74.4338 11.5474 73.1913 12.7656 71.5823 12.7656V12.7634ZM74.0948 14.1504V29.7663H69.0993V14.1504H74.0948ZM83.6562 30.1062C81.2005 30.1062 79.2251 29.342 77.675 27.8136C76.1503 26.2872 75.3879 24.3344 75.3879 21.9299C75.3879 19.5253 76.1503 17.5747 77.7024 16.0462C79.2546 14.5178 81.2574 13.7557 83.7404 13.7557C86.9858 13.7557 89.8374 15.339 91.1621 18.3093L87.1838 20.4036C86.394 19.0736 85.2926 18.3938 83.8541 18.3938C82.8095 18.3938 81.9629 18.7337 81.2848 19.4134C80.963 19.7471 80.7101 20.1411 80.5406 20.573C80.3712 21.0048 80.2884 21.4659 80.297 21.9299C80.297 23.9946 81.7923 25.523 83.7973 25.523C85.2357 25.523 86.5625 24.7313 87.1269 23.5153L91.1073 25.8903C89.751 28.4933 86.9584 30.1062 83.6562 30.1062ZM108.429 29.7663H102.501L97.8993 23.5702L97.1664 24.25V29.7663H92.2025V8.18234H97.1685V18.6767L101.852 14.1504H107.92L101.233 20.431L108.429 29.7663ZM108.762 21.647V8.86H114.067V21.5626C114.067 23.9101 115.422 25.0417 117.37 25.0417C119.288 25.0417 120.642 23.8531 120.642 21.5626V8.86H125.977V21.647C125.977 27.8136 121.714 30.1337 117.37 30.1337C113.052 30.1337 108.762 27.8136 108.762 21.647ZM137.767 13.7557C139.997 13.7557 141.804 14.5473 143.242 16.1307C144.681 17.6866 145.386 19.6393 145.386 21.9299C145.386 24.2226 144.653 26.1732 143.215 27.7861C141.774 29.3694 139.969 30.1632 137.796 30.1632C136.073 30.1632 134.578 29.5974 133.365 28.4659V36.1883H128.369V14.1504H133.281V15.5944C134.494 14.3763 135.989 13.7557 137.767 13.7557ZM140.306 21.9869C140.306 19.9497 138.841 18.3938 136.808 18.3938C134.776 18.3938 133.281 19.9497 133.281 21.9869C133.281 22.977 133.618 23.8257 134.268 24.5329C134.944 25.2401 135.791 25.58 136.808 25.58C137.823 25.58 138.67 25.2401 139.319 24.5329C139.966 23.8452 140.321 22.9322 140.309 21.9869H140.306Z"
		fill="#000"
	></path>
</svg>
