<svg width="78" height="22" fill="none" xmlns="http://www.w3.org/2000/svg"><path d="M11.088 20.064c-1.158.203-2.337.264-3.556.426L3.812 9.598v11.36c-1.158.122-2.214.284-3.312.447V.595h3.09l4.226 11.807V.595h3.272v19.469zM17.49 8.216c1.26 0 3.19-.061 4.348-.061v3.251c-1.443 0-3.13 0-4.349.061v4.837c1.91-.122 3.821-.285 5.752-.345v3.129l-9.003.711V.595h9.003v3.252h-5.752v4.369zm17.842-4.37H31.96v14.958c-1.098 0-2.195 0-3.252.04V3.847h-3.373V.595h9.998v3.252zm5.284 4.146h4.45v3.252h-4.45v7.377h-3.191V.595h9.084v3.252h-5.893v4.145zm11.177 7.784c1.85.04 3.719.183 5.528.284v3.211c-2.907-.183-5.813-.366-8.78-.427V.595h3.252v15.18zm8.27 3.719c1.037.06 2.135.122 3.191.243V.595h-3.19v18.9zM77.5.595l-4.125 9.897L77.5 21.405c-1.22-.163-2.438-.386-3.658-.59L71.505 14.8l-2.377 5.528c-1.18-.203-2.317-.264-3.496-.427l4.187-9.531-3.78-9.775h3.495l2.134 5.467L73.944.595H77.5z" fill="#B9BEC7"/></svg>
