<svg width="93" height="28" fill="none" xmlns="http://www.w3.org/2000/svg"><g clip-path="url(#prefix__clip0_218_12225)"><path d="M14.324.22C6.713.22.542 6.392.542 14.004c0 7.612 6.17 13.782 13.782 13.782 7.613 0 13.783-6.17 13.783-13.782 0-7.611-6.17-13.781-13.783-13.781V.22zm6.32 19.879a.859.859 0 01-1.18.285c-3.237-1.977-7.31-2.425-12.108-1.329a.86.86 0 01-.382-1.675c5.25-1.2 9.753-.683 13.386 1.537a.859.859 0 01.285 1.182zm1.688-3.753a1.075 1.075 0 01-1.478.354c-3.705-2.277-9.352-2.936-13.734-1.606a1.076 1.076 0 01-1.341-.716 1.076 1.076 0 01.717-1.34c5.005-1.519 11.228-.783 15.482 1.831.505.311.665.973.354 1.477zm.145-3.908C18.035 9.8 10.706 9.558 6.465 10.844a1.289 1.289 0 11-.749-2.467c4.869-1.477 12.962-1.192 18.076 1.844a1.288 1.288 0 11-1.315 2.217zm15.562.506c-2.38-.568-2.803-.966-2.803-1.803 0-.79.744-1.322 1.852-1.322 1.073 0 2.136.404 3.252 1.235a.154.154 0 00.117.029.154.154 0 00.104-.063l1.161-1.638a.156.156 0 00-.03-.212c-1.327-1.066-2.822-1.584-4.57-1.584-2.569 0-4.364 1.542-4.364 3.748 0 2.366 1.548 3.204 4.225 3.85 2.276.525 2.66.965 2.66 1.75 0 .87-.776 1.412-2.027 1.412-1.389 0-2.523-.469-3.79-1.565a.161.161 0 00-.114-.038.154.154 0 00-.107.054l-1.303 1.55a.157.157 0 00.015.218 7.767 7.767 0 005.247 2.011c2.768 0 4.557-1.512 4.557-3.854.005-1.976-1.179-3.07-4.077-3.776l-.005-.002zm10.346-2.347c-1.2 0-2.184.473-2.997 1.441v-1.09a.155.155 0 00-.155-.156h-2.131a.155.155 0 00-.155.156v12.113c0 .086.07.157.155.157h2.131c.086 0 .155-.071.155-.157v-3.823c.813.91 1.797 1.356 2.997 1.356 2.23 0 4.488-1.716 4.488-4.998.003-3.282-2.255-5-4.487-5l-.001.001zm2.01 5c0 1.67-1.03 2.836-2.504 2.836-1.457 0-2.556-1.22-2.556-2.837 0-1.618 1.1-2.837 2.556-2.837 1.45 0 2.503 1.193 2.503 2.837zm8.263-5c-2.872 0-5.122 2.211-5.122 5.035 0 2.793 2.235 4.98 5.087 4.98 2.882 0 5.138-2.203 5.138-5.016 0-2.803-2.241-4.999-5.103-4.999zm0 7.853c-1.528 0-2.68-1.228-2.68-2.855 0-1.634 1.113-2.82 2.645-2.82 1.537 0 2.696 1.228 2.696 2.856 0 1.634-1.12 2.819-2.661 2.819zm11.236-7.658h-2.346V8.395a.155.155 0 00-.154-.156h-2.132a.157.157 0 00-.156.156v2.397h-1.024a.155.155 0 00-.154.156v1.831c0 .086.069.156.154.156h1.024v4.74c0 1.914.953 2.885 2.834 2.885.764 0 1.397-.158 1.995-.497a.152.152 0 00.079-.135v-1.745a.155.155 0 00-.074-.131.15.15 0 00-.152-.007 2.69 2.69 0 01-1.25.301c-.683 0-.99-.311-.99-1.006v-4.404h2.346c.085 0 .154-.07.154-.156V10.95a.151.151 0 00-.153-.156l-.001-.001zm8.17.01v-.295c0-.866.332-1.253 1.076-1.253.444 0 .801.089 1.201.222a.155.155 0 00.204-.148V7.531a.154.154 0 00-.11-.15 5.837 5.837 0 00-1.771-.254c-1.967 0-3.008 1.108-3.008 3.204v.45h-1.024a.157.157 0 00-.157.157v1.84c0 .086.071.156.157.156h1.023v7.309c0 .087.071.156.157.156h2.13c.087 0 .156-.07.156-.156v-7.308h1.99l3.048 7.308c-.346.767-.687.92-1.15.92-.376 0-.773-.112-1.176-.334a.17.17 0 00-.123-.012.155.155 0 00-.092.084l-.723 1.585a.155.155 0 00.067.202c.754.409 1.434.583 2.275.583 1.573 0 2.444-.734 3.21-2.706l3.696-9.551a.152.152 0 00-.017-.146.152.152 0 00-.126-.067h-2.219a.156.156 0 00-.148.104l-2.273 6.49-2.488-6.494a.155.155 0 00-.145-.1h-3.64zm-4.737-.01h-2.132a.157.157 0 00-.156.156v9.296c0 .087.07.156.156.156h2.132c.085 0 .156-.07.156-.156v-9.295a.156.156 0 00-.156-.156v-.001zm-1.054-4.233a1.528 1.528 0 10-.002 3.056 1.528 1.528 0 00.002-3.056zm18.667 7.222c-.843 0-1.5-.678-1.5-1.5s.666-1.507 1.508-1.507c.843 0 1.5.677 1.5 1.499 0 .822-.665 1.508-1.508 1.508zm.008-2.858c-.768 0-1.35.61-1.35 1.358 0 .747.578 1.35 1.342 1.35.769 0 1.35-.61 1.35-1.358a1.33 1.33 0 00-1.342-1.35zm.333 1.504l.424.594h-.358l-.382-.545h-.328v.545h-.3v-1.574h.702c.367 0 .607.187.607.502.002.258-.148.415-.364.478h-.001zm-.254-.71h-.39v.497h.39c.195 0 .311-.095.311-.249 0-.162-.116-.248-.31-.248z" fill="#B9BEC7"/></g><defs><clipPath id="prefix__clip0_218_12225"><path fill="#fff" transform="translate(.5 .175)" d="M0 0h92v27.649H0z"/></clipPath></defs></svg>
