<svg width="121" height="30" fill="none" xmlns="http://www.w3.org/2000/svg"><path d="M88.474 7.463a1.524 1.524 0 01-.425 1.054 1.42 1.42 0 01-2.054 0 1.495 1.495 0 01-.425-1.054 1.524 1.524 0 01.425-1.054 1.42 1.42 0 012.054 0 1.495 1.495 0 01.425 1.054zM114.293 14.006h-3.696v3.772h3.696v-3.772zM40.997 14.006H37.3v3.772h3.696v-3.772zM29.912 14.006h-3.696v3.772h3.696v-3.772zM18.995 14.006H15.3v3.772h3.696v-3.772zM7.69 14.006H3.993v3.772h3.695v-3.772z" fill="#B9BEC7"/><path d="M12.87 6.478h.438c2.832 0 4.152 1.515 4.704 5.556l.877-.039-.118-6.41H4.361l-.143 6.41.844.039c.146-1.515.322-2.331.702-3.147.673-1.515 2.076-2.409 3.801-2.409h.614v13.947c0 1.476-.088 1.942-.438 2.292-.293.272-.877.389-1.55.389h-.673v.932h8.012v-.932h-.676c-.669 0-1.258-.117-1.546-.389-.35-.35-.438-.816-.438-2.292V6.478M50.99 24.038l4.67-16.292v12.785c0 1.395-.08 1.886-.396 2.225-.238.264-.789.377-1.4.377h-.237v.905h6.6v-.905h-.344c-.607 0-1.161-.113-1.399-.377-.317-.34-.396-.83-.396-2.225v-10.9c0-1.395.08-1.923.396-2.262.264-.226.792-.377 1.4-.377h.343v-.868h-5.122l-3.854 13.162-3.772-13.162h-5.095v.868h.475c1.4 0 1.664.302 1.664 2.112v10.37c0 1.66-.08 2.34-.317 2.83-.264.49-.822.83-1.4.83h-.422v.904h5.438v-.905h-.343c-.686 0-1.24-.264-1.561-.792-.313-.528-.392-1.018-.392-2.866V7.746l4.642 16.292h.822M65.902 11.291c-3.273 0-5.411 2.564-5.411 6.6 0 3.885 2.138 6.525 5.329 6.525 3.22 0 5.358-2.64 5.358-6.563 0-3.884-2.138-6.562-5.276-6.562zm-.105.867c.947 0 1.765.604 2.213 1.622.423.943.608 2.225.608 4.073 0 3.809-.924 5.694-2.798 5.694-1.871 0-2.773-1.885-2.773-5.732 0-1.81.189-3.092.611-4.035.42-.98 1.268-1.622 2.139-1.622zM75.564 5.936l-3.748.188v.83h.18c1.11 0 1.35.377 1.35 2.15V21.36c0 1.584-.052 2-.263 2.678h.871c.656-1.094.818-1.282 1.083-1.282.128 0 .256.038.445.226 1.297 1.056 1.851 1.282 3.04 1.282 2.846 0 4.906-2.753 4.906-6.675 0-3.696-1.905-6.185-4.752-6.185-1.478 0-2.557.717-3.112 1.999V5.936zm2.739 6.41c1.693 0 2.564 1.811 2.564 5.356 0 3.734-.898 5.657-2.614 5.657-1.9 0-2.9-1.961-2.9-5.544 0-1.81.238-3.054.792-3.997.498-.905 1.347-1.471 2.157-1.471zM88.312 11.48l-3.851.226v.83h.29c1.105 0 1.343.377 1.343 2.112v6.373c0 1.735-.237 2.15-1.343 2.15h-.418v.867h5.748v-.867h-.416c-1.112 0-1.353-.377-1.353-2.15V11.48M94.99 5.936l-3.85.188v.83h.287c1.108 0 1.346.377 1.346 2.15V21.02c0 1.773-.238 2.15-1.346 2.15h-.419v.867h5.751v-.867h-.422c-1.113 0-1.347-.378-1.347-2.15V5.936zM107.263 17.778c-.129-3.998-2.03-6.487-4.903-6.487-2.776 0-4.779 2.715-4.779 6.487 0 4.035 1.977 6.637 5.039 6.637 1.98 0 3.353-1.056 4.488-3.394l-.792-.415c-.924 1.961-1.848 2.753-3.274 2.753-2.085 0-2.979-1.659-3.006-5.581h7.227zm-7.2-.943c.023-2.829.943-4.601 2.425-4.601 1.478 0 2.349 1.735 2.323 4.6h-4.748zM115.679 10.984c.223 0 .441.057.653.171.213.115.378.279.497.491.119.213.178.435.178.667 0 .229-.059.449-.176.66-.116.211-.28.375-.491.492a1.34 1.34 0 01-1.322 0 1.234 1.234 0 01-.492-.492 1.334 1.334 0 01-.177-.66c0-.232.06-.454.179-.667.119-.213.285-.377.497-.49.214-.115.431-.172.654-.172zm0 .22c-.186 0-.368.048-.544.144a1.021 1.021 0 00-.414.41c-.1.177-.15.363-.15.555a1.11 1.11 0 001.108 1.106c.191 0 .375-.05.551-.147.175-.098.312-.235.409-.41a1.12 1.12 0 00-.002-1.104 1.025 1.025 0 00-.415-.41 1.124 1.124 0 00-.543-.143zm-.583 1.842v-1.43h.493a1.2 1.2 0 01.364.04.348.348 0 01.18.138.379.379 0 01-.045.482.443.443 0 01-.297.13c.05.022.091.047.121.076.058.057.129.151.212.284l.174.28h-.283l-.127-.226c-.1-.176-.18-.287-.24-.332-.042-.033-.104-.05-.185-.05h-.136v.608h-.231zm.231-.804h.282c.134 0 .225-.02.274-.06a.196.196 0 00.074-.16.191.191 0 00-.036-.113.208.208 0 00-.098-.076.728.728 0 00-.232-.024h-.264v.433z" fill="#B9BEC7"/></svg>
