<svg width="71" height="20" fill="none" xmlns="http://www.w3.org/2000/svg"><path d="M8.36 4.7v14.144H6.18V4.7H.5V2.624h13.544V4.7H8.36zm8.276 14.144V2.624h2.18v16.22h-2.18zM34.2 14.249c0 2.751-1.841 4.592-6.019 4.592h-5.528V2.624h5.371c3.917 0 5.657 1.762 5.657 4.306 0 1.659-.96 2.883-2.78 3.573 2.172.526 3.299 1.927 3.299 3.746zm-5.994-9.602h-3.348v5.085h3.01c2.333 0 3.608-1.037 3.608-2.62 0-1.583-1.143-2.465-3.27-2.465zm-.157 7.086h-3.174v5.085h3.514c2.412 0 3.608-.857 3.608-2.544 0-1.866-1.664-2.541-3.948-2.541zm20.53-6.137a7.61 7.61 0 00-4.435-1.39c-3.53 0-5.912 2.441-5.912 6.465 0 4.023 2.381 6.59 5.954 6.59a7.818 7.818 0 004.592-1.589l.362 2.208a9.823 9.823 0 01-5.008 1.35c-4.763 0-8.122-3.295-8.122-8.458 0-5.164 3.41-8.535 8.13-8.535a10.192 10.192 0 015.137 1.35l-.698 2.01zM62.641 3.38a7.693 7.693 0 00-.75-.398c-2.122 4.066-5.955 8.9-11.069 11.65a7.635 7.635 0 001.104 1.788c4.383-3.023 8.44-8.044 10.715-13.04z" fill="#B9BEC7"/><path d="M61.697 2.89a8.787 8.787 0 00-3.522-.704c-4.763 0-8.134 3.68-8.134 8.524-.003.776.082 1.55.25 2.306 4.875-1.987 9.212-6.369 11.406-10.126zm1.146.602c-2.502 6.153-5.556 10.505-9.445 14.248a8.32 8.32 0 004.794 1.418c4.763 0 8.134-3.704 8.134-8.552-.017-3.208-1.345-5.702-3.483-7.114zm3.466-.535a2.096 2.096 0 114.19 0 2.096 2.096 0 11-4.19 0zm3.951 0a1.855 1.855 0 00-3.707-.003v.003a1.855 1.855 0 003.71-.011v.011h-.003zm-2.67-1.11h.964c.468 0 .818.23.818.676a.642.642 0 01-.493.65l.568.793h-.493l-.512-.754h-.438v.754h-.398v-2.13l-.016.011zm.927 1.062a.37.37 0 00.434-.35.359.359 0 00-.431-.35h-.513v.686h.516l-.006.014z" fill="#B9BEC7"/></svg>
